<svg id="svg" version="1.1" xmlns="http://www.w3.org/2000/svg" xmlns:xlink="http://www.w3.org/1999/xlink" width="400" height="37.54266211604096" viewBox="0, 0, 400,37.54266211604096"><g id="svgg"><path id="path0" d="M0.000 18.750 L 0.000 37.500 200.000 37.500 L 400.000 37.500 400.000 18.750 L 400.000 0.000 200.000 0.000 L 0.000 0.000 0.000 18.750 M3.733 4.433 C 4.146 4.846,4.333 5.184,4.333 5.517 C 4.333 5.819,4.420 6.000,4.566 6.000 C 4.828 6.000,5.000 6.353,5.000 6.890 C 5.000 7.090,5.150 7.347,5.333 7.461 C 5.535 7.588,5.667 7.850,5.667 8.128 C 5.667 8.406,5.798 8.668,6.000 8.795 C 6.202 8.921,6.333 9.183,6.333 9.461 C 6.333 9.739,6.465 10.002,6.667 10.128 C 6.878 10.260,7.000 10.517,7.000 10.829 C 7.000 11.151,7.115 11.383,7.333 11.500 C 7.552 11.617,7.667 11.849,7.667 12.173 C 7.667 12.769,7.700 12.774,8.241 12.273 C 8.487 12.045,8.667 11.696,8.667 11.445 C 8.667 11.182,8.798 10.942,9.000 10.833 C 9.265 10.692,9.333 10.484,9.333 9.829 C 9.333 9.183,9.406 8.957,9.667 8.795 C 9.869 8.668,10.000 8.406,10.000 8.128 C 10.000 7.850,10.131 7.588,10.333 7.461 C 10.533 7.337,10.667 7.073,10.667 6.803 C 10.667 6.554,10.805 6.255,10.975 6.134 C 11.144 6.015,11.333 5.644,11.395 5.310 C 11.471 4.904,11.617 4.675,11.837 4.617 C 12.019 4.570,12.167 4.413,12.167 4.269 C 12.167 3.927,12.701 3.803,13.906 3.866 C 15.101 3.928,15.495 4.320,14.875 4.829 C 14.637 5.024,14.500 5.320,14.500 5.640 C 14.500 5.998,14.403 6.175,14.167 6.250 C 13.916 6.329,13.833 6.502,13.833 6.944 C 13.833 7.391,13.754 7.552,13.500 7.618 C 13.250 7.684,13.167 7.846,13.167 8.264 C 13.167 8.651,13.065 8.876,12.833 9.000 C 12.628 9.110,12.499 9.352,12.496 9.631 C 12.494 9.948,12.295 10.254,11.830 10.657 C 11.412 11.018,11.167 11.373,11.167 11.617 C 11.167 11.829,11.017 12.132,10.833 12.289 C 10.650 12.446,10.500 12.748,10.500 12.962 C 10.500 13.175,10.312 13.523,10.083 13.735 C 9.845 13.957,9.667 14.307,9.667 14.555 C 9.667 14.816,9.536 15.058,9.337 15.165 C 9.028 15.330,9.004 15.548,8.962 18.629 L 8.917 21.917 7.833 21.917 L 6.750 21.917 6.705 18.629 C 6.662 15.548,6.639 15.330,6.330 15.165 C 6.116 15.051,6.000 14.816,6.000 14.500 C 6.000 14.182,5.884 13.949,5.667 13.833 C 5.449 13.717,5.333 13.484,5.333 13.162 C 5.333 12.850,5.211 12.593,5.000 12.461 C 4.777 12.322,4.667 12.073,4.667 11.710 C 4.667 11.411,4.599 11.167,4.517 11.167 C 4.143 11.167,3.167 9.949,3.167 9.483 C 3.167 9.181,3.080 9.000,2.934 9.000 C 2.672 9.000,2.500 8.647,2.500 8.110 C 2.500 7.910,2.350 7.653,2.167 7.539 C 1.965 7.412,1.833 7.150,1.833 6.872 C 1.833 6.594,1.702 6.332,1.500 6.205 C 1.298 6.079,1.167 5.817,1.167 5.539 C 1.167 5.261,1.035 4.998,0.833 4.872 C 0.004 4.354,0.632 3.846,2.108 3.838 C 3.066 3.834,3.173 3.873,3.733 4.433 M25.955 4.167 C 26.112 4.350,26.408 4.500,26.613 4.500 C 27.157 4.500,28.833 6.184,28.833 6.730 C 28.833 6.984,28.967 7.226,29.167 7.333 C 29.437 7.478,29.500 7.682,29.500 8.411 C 29.500 9.164,29.554 9.328,29.833 9.417 C 30.152 9.518,30.167 9.669,30.167 12.922 C 30.167 16.151,30.150 16.331,29.833 16.500 C 29.616 16.616,29.500 16.849,29.500 17.167 C 29.500 17.484,29.384 17.717,29.167 17.833 C 28.964 17.942,28.833 18.182,28.833 18.447 C 28.833 19.037,26.564 21.333,25.981 21.333 C 25.761 21.333,25.487 21.483,25.372 21.667 C 25.180 21.974,24.983 22.000,22.838 22.000 C 20.682 22.000,20.499 21.976,20.333 21.667 C 20.226 21.466,19.984 21.333,19.726 21.333 C 19.195 21.333,17.500 19.628,17.500 19.094 C 17.500 18.900,17.350 18.612,17.167 18.455 C 16.916 18.240,16.833 17.964,16.833 17.335 C 16.833 16.732,16.769 16.500,16.601 16.500 C 16.011 16.500,15.915 9.827,16.500 9.461 C 16.702 9.335,16.833 9.073,16.833 8.795 C 16.833 8.517,16.965 8.254,17.167 8.128 C 17.350 8.013,17.500 7.742,17.500 7.525 C 17.500 7.035,20.022 4.500,20.508 4.500 C 20.687 4.500,20.983 4.350,21.167 4.167 C 21.464 3.869,21.722 3.833,23.585 3.833 C 25.464 3.833,25.698 3.866,25.955 4.167 M43.000 4.167 C 43.183 4.350,43.469 4.500,43.635 4.500 C 44.306 4.500,44.522 4.869,44.468 5.921 L 44.417 6.917 43.695 6.969 C 43.084 7.013,42.960 6.968,42.884 6.677 C 42.799 6.350,42.678 6.333,40.389 6.333 L 37.984 6.333 37.159 7.159 C 36.215 8.103,35.976 9.198,36.667 9.417 C 36.850 9.475,37.000 9.625,37.000 9.750 C 37.000 9.875,37.150 10.025,37.333 10.083 C 37.517 10.142,37.667 10.297,37.667 10.428 C 37.667 10.582,37.844 10.667,38.168 10.667 C 38.464 10.667,38.787 10.804,38.955 11.000 C 39.112 11.183,39.412 11.333,39.622 11.333 C 39.832 11.333,40.132 11.483,40.289 11.667 C 40.492 11.905,40.780 12.000,41.295 12.000 C 41.850 12.000,42.105 12.096,42.402 12.417 C 42.614 12.646,42.953 12.833,43.155 12.833 C 43.390 12.833,43.964 13.282,44.761 14.089 L 46.000 15.344 46.000 16.744 C 46.000 18.109,45.803 18.667,45.321 18.667 C 45.236 18.667,45.167 18.891,45.167 19.165 C 45.167 19.638,44.350 20.667,43.975 20.667 C 43.897 20.667,43.833 20.771,43.833 20.899 C 43.833 21.203,43.466 21.333,42.610 21.333 C 42.094 21.333,41.860 21.420,41.705 21.667 C 41.388 22.175,34.944 22.184,34.672 21.677 C 34.568 21.483,34.285 21.334,33.958 21.302 L 33.417 21.250 33.366 20.182 C 33.331 19.440,33.382 19.072,33.533 18.976 C 33.910 18.737,34.488 18.821,34.833 19.167 C 35.345 19.678,40.642 19.678,40.961 19.167 C 41.077 18.981,41.350 18.833,41.577 18.833 C 42.813 18.833,43.341 16.649,42.346 15.654 C 42.063 15.371,41.681 15.167,41.435 15.167 C 41.182 15.167,40.940 15.032,40.833 14.833 C 40.717 14.616,40.484 14.500,40.167 14.500 C 39.849 14.500,39.616 14.384,39.500 14.167 C 39.358 13.902,39.151 13.833,38.496 13.833 C 37.850 13.833,37.624 13.760,37.461 13.500 C 37.335 13.298,37.073 13.167,36.795 13.167 C 36.517 13.167,36.254 13.035,36.128 12.833 C 36.013 12.650,35.756 12.500,35.557 12.500 C 35.027 12.500,34.667 12.329,34.667 12.077 C 34.667 11.955,34.517 11.808,34.333 11.750 C 34.086 11.672,34.000 11.498,34.000 11.078 C 34.000 10.682,33.900 10.458,33.667 10.333 C 33.376 10.178,33.333 9.984,33.333 8.833 C 33.333 7.682,33.376 7.489,33.667 7.333 C 33.866 7.226,34.000 6.984,34.000 6.730 C 34.000 5.996,35.683 4.500,36.507 4.500 C 36.944 4.500,37.279 4.388,37.500 4.167 C 38.007 3.660,42.493 3.660,43.000 4.167 M50.344 4.006 C 50.648 4.168,50.667 4.390,50.667 7.756 L 50.667 11.333 54.583 11.333 L 58.500 11.333 58.500 7.756 C 58.500 3.724,58.463 3.833,59.810 3.833 C 61.065 3.833,61.000 3.330,61.000 12.979 C 61.000 22.598,61.083 22.000,59.750 22.000 C 58.470 22.000,58.500 22.103,58.500 17.714 L 58.500 13.827 54.625 13.872 L 50.750 13.917 50.667 17.917 L 50.583 21.917 49.500 21.917 L 48.417 21.917 48.374 13.102 C 48.342 6.731,48.383 4.225,48.519 4.061 C 48.741 3.793,49.883 3.759,50.344 4.006 M75.071 4.095 C 75.370 4.394,75.423 5.522,75.161 6.011 C 75.006 6.301,74.796 6.333,73.077 6.333 L 71.167 6.333 71.167 12.917 L 71.167 19.500 72.988 19.500 C 75.141 19.500,75.333 19.607,75.333 20.812 C 75.333 22.041,75.516 22.000,70.000 22.000 C 64.443 22.000,64.667 22.054,64.667 20.723 C 64.667 19.590,64.838 19.500,66.989 19.500 L 68.667 19.500 68.667 12.917 L 68.667 6.333 66.867 6.333 C 65.689 6.333,64.998 6.264,64.867 6.133 C 64.542 5.808,64.610 4.216,64.958 4.013 C 65.487 3.706,74.757 3.781,75.071 4.095 M107.800 4.033 C 107.910 4.143,108.000 4.667,108.000 5.197 C 108.000 6.369,108.127 6.320,104.917 6.376 L 102.583 6.417 102.500 14.167 L 102.417 21.917 101.680 21.969 C 101.275 21.998,100.769 21.978,100.555 21.924 L 100.167 21.827 100.167 14.080 L 100.167 6.333 97.617 6.333 C 95.856 6.333,95.005 6.271,94.867 6.133 C 94.542 5.808,94.610 4.216,94.958 4.013 C 95.402 3.755,107.540 3.774,107.800 4.033 M122.822 4.069 C 122.937 4.208,122.997 4.704,122.967 5.278 L 122.917 6.250 118.917 6.333 L 114.917 6.417 114.871 8.875 L 114.824 11.333 118.725 11.333 C 123.207 11.333,123.045 11.278,122.967 12.778 L 122.917 13.750 118.917 13.833 L 114.917 13.917 114.871 16.708 L 114.825 19.500 118.631 19.500 C 123.132 19.500,123.042 19.471,122.968 20.921 L 122.917 21.917 117.750 21.917 L 112.583 21.917 112.540 13.102 C 112.509 6.731,112.549 4.225,112.686 4.061 C 112.969 3.719,122.538 3.727,122.822 4.069 M135.167 4.167 C 135.350 4.350,135.650 4.500,135.833 4.500 C 136.028 4.500,136.722 5.056,137.500 5.833 L 138.833 7.167 138.833 8.905 C 138.833 10.619,138.669 11.167,138.155 11.167 C 138.070 11.167,138.000 11.274,138.000 11.405 C 138.000 11.537,137.850 11.692,137.667 11.750 C 137.483 11.808,137.333 11.958,137.333 12.083 C 137.333 12.208,137.183 12.358,137.000 12.417 C 136.817 12.475,136.667 12.625,136.667 12.750 C 136.667 12.875,136.517 13.025,136.333 13.083 C 136.150 13.142,136.000 13.292,136.000 13.417 C 136.000 13.542,135.848 13.693,135.661 13.752 C 135.360 13.847,135.433 13.966,136.328 14.828 C 137.051 15.525,137.333 15.918,137.333 16.230 C 137.333 16.483,137.472 16.751,137.667 16.872 C 137.860 16.993,138.000 17.261,138.000 17.510 C 138.000 17.761,138.174 18.091,138.417 18.302 C 138.646 18.501,138.833 18.836,138.833 19.045 C 138.833 19.255,138.983 19.554,139.167 19.711 C 139.363 19.879,139.500 20.203,139.500 20.498 C 139.500 20.816,139.585 21.000,139.732 21.000 C 140.053 21.000,140.213 21.493,139.982 21.771 C 139.234 22.673,136.333 21.647,136.333 20.481 C 136.333 20.260,136.183 19.987,136.000 19.872 C 135.798 19.746,135.667 19.483,135.667 19.205 C 135.667 18.927,135.535 18.665,135.333 18.539 C 135.122 18.407,135.000 18.150,135.000 17.838 C 135.000 17.516,134.885 17.283,134.667 17.167 C 134.469 17.061,134.333 16.818,134.333 16.570 C 134.333 16.289,134.058 15.875,133.501 15.319 L 132.669 14.486 131.293 14.535 L 129.917 14.583 129.833 18.250 L 129.750 21.917 128.667 21.917 L 127.583 21.917 127.540 13.102 C 127.509 6.731,127.549 4.225,127.686 4.061 C 128.031 3.644,134.739 3.739,135.167 4.167 M146.400 4.433 C 146.917 4.951,147.000 5.141,147.000 5.810 C 147.000 6.406,147.077 6.635,147.333 6.795 C 147.613 6.969,147.667 7.183,147.667 8.128 C 147.667 9.073,147.720 9.287,148.000 9.461 C 148.260 9.624,148.333 9.850,148.333 10.496 C 148.333 11.151,148.402 11.358,148.667 11.500 C 148.931 11.642,149.000 11.849,149.000 12.506 C 149.000 12.961,149.075 13.333,149.167 13.333 C 149.258 13.333,149.333 12.961,149.333 12.506 C 149.333 11.849,149.402 11.642,149.667 11.500 C 149.931 11.358,150.000 11.151,150.000 10.496 C 150.000 9.850,150.073 9.624,150.333 9.461 C 150.580 9.307,150.667 9.073,150.667 8.557 C 150.667 7.701,150.797 7.333,151.101 7.333 C 151.271 7.333,151.333 7.090,151.333 6.423 C 151.333 5.682,151.396 5.478,151.667 5.333 C 151.884 5.217,152.000 4.984,152.000 4.667 C 152.000 3.622,154.221 3.436,155.238 4.395 L 155.833 4.956 155.833 10.521 C 155.833 15.906,155.844 16.093,156.167 16.295 C 156.569 16.546,156.687 21.413,156.300 21.800 C 155.941 22.159,153.711 22.061,153.506 21.678 C 153.396 21.472,153.325 18.748,153.310 14.136 C 153.297 10.165,153.238 7.322,153.178 7.818 C 153.097 8.487,152.974 8.782,152.701 8.963 C 152.465 9.120,152.333 9.377,152.333 9.681 C 152.333 9.984,152.213 10.219,152.000 10.333 C 151.730 10.478,151.667 10.682,151.667 11.411 C 151.667 12.164,151.612 12.328,151.333 12.417 C 151.054 12.505,151.000 12.669,151.000 13.422 C 151.000 14.143,150.936 14.356,150.675 14.495 C 150.429 14.627,150.339 14.880,150.300 15.543 L 150.250 16.417 149.167 16.417 C 148.089 16.417,148.083 16.414,148.027 15.922 C 147.996 15.650,147.790 15.260,147.569 15.055 C 147.271 14.780,147.167 14.507,147.167 14.008 C 147.167 13.556,147.057 13.224,146.833 13.000 C 146.604 12.771,146.500 12.444,146.500 11.954 C 146.500 11.447,146.404 11.158,146.167 10.955 C 145.916 10.740,145.833 10.464,145.833 9.835 C 145.833 9.232,145.769 9.000,145.601 9.000 C 145.291 9.000,145.167 8.630,145.167 7.703 C 145.167 7.195,145.111 6.989,145.002 7.098 C 144.899 7.201,144.820 10.040,144.793 14.590 L 144.750 21.917 143.333 21.917 L 141.917 21.917 141.869 20.213 C 141.826 18.653,141.850 18.492,142.161 18.298 C 142.490 18.093,142.500 17.934,142.500 13.111 C 142.500 8.276,142.509 8.133,142.833 8.048 C 143.142 7.968,143.167 7.821,143.167 6.072 C 143.167 3.865,143.180 3.846,144.775 3.838 C 145.733 3.834,145.839 3.873,146.400 4.433 M169.178 4.006 C 169.568 4.215,169.647 5.837,169.282 6.140 C 169.162 6.240,168.243 6.343,167.240 6.369 L 165.417 6.417 165.373 12.958 L 165.329 19.500 167.153 19.500 C 169.308 19.500,169.500 19.607,169.500 20.812 C 169.500 22.041,169.682 22.000,164.167 22.000 C 158.610 22.000,158.833 22.054,158.833 20.723 C 158.833 19.584,158.999 19.500,161.241 19.500 L 163.004 19.500 162.960 12.958 L 162.917 6.417 161.093 6.369 C 160.090 6.343,159.172 6.240,159.052 6.140 C 158.707 5.855,158.764 4.224,159.125 4.013 C 159.523 3.782,168.746 3.775,169.178 4.006 M177.344 4.006 C 177.550 4.116,177.667 4.355,177.667 4.667 C 177.667 4.984,177.783 5.217,178.000 5.333 C 178.217 5.449,178.333 5.682,178.333 6.000 C 178.333 6.318,178.450 6.551,178.667 6.667 C 178.884 6.783,179.000 7.016,179.000 7.333 C 179.000 7.651,179.116 7.884,179.333 8.000 C 179.551 8.117,179.667 8.349,179.667 8.671 C 179.667 8.983,179.789 9.240,180.000 9.372 C 180.220 9.510,180.333 9.761,180.333 10.112 C 180.333 10.498,180.425 10.673,180.667 10.750 C 180.915 10.829,181.000 11.002,181.000 11.433 C 181.000 11.831,181.091 12.044,181.292 12.118 C 181.683 12.262,181.828 12.500,181.831 13.002 C 181.832 13.237,181.979 13.511,182.167 13.628 C 182.424 13.789,182.500 14.017,182.500 14.628 C 182.500 15.239,182.576 15.467,182.833 15.628 C 183.035 15.754,183.167 16.017,183.167 16.295 C 183.167 16.573,183.298 16.835,183.500 16.961 C 183.713 17.094,183.833 17.350,183.833 17.668 C 183.833 17.942,183.908 18.167,184.000 18.167 C 184.108 18.167,184.167 15.733,184.167 11.200 C 184.167 3.452,184.106 3.833,185.346 3.833 C 186.569 3.833,186.508 3.320,186.460 13.102 L 186.417 21.917 184.753 21.965 C 182.988 22.016,182.667 21.888,182.667 21.135 C 182.667 20.969,182.517 20.683,182.333 20.500 C 182.150 20.317,182.000 19.996,182.000 19.787 C 182.000 19.578,181.850 19.279,181.667 19.122 C 181.483 18.965,181.333 18.665,181.333 18.455 C 181.333 18.246,181.183 17.946,181.000 17.789 C 180.817 17.632,180.667 17.332,180.667 17.122 C 180.667 16.912,180.517 16.612,180.333 16.455 C 180.137 16.287,180.000 15.964,180.000 15.668 C 180.000 15.351,179.915 15.167,179.768 15.167 C 179.506 15.167,179.333 14.814,179.333 14.276 C 179.333 14.077,179.183 13.820,179.000 13.705 C 178.798 13.579,178.667 13.317,178.667 13.039 C 178.667 12.761,178.535 12.498,178.333 12.372 C 178.131 12.246,178.000 11.983,178.000 11.705 C 178.000 11.427,177.869 11.165,177.667 11.039 C 177.406 10.876,177.333 10.650,177.333 10.004 C 177.333 9.349,177.265 9.142,177.000 9.000 C 176.784 8.884,176.667 8.651,176.667 8.337 C 176.667 8.071,176.592 7.807,176.500 7.750 C 176.390 7.682,176.333 10.015,176.333 14.623 C 176.333 22.425,176.405 22.000,175.083 22.000 C 174.616 22.000,174.143 21.910,174.033 21.800 C 173.692 21.458,173.751 4.439,174.095 4.095 C 174.403 3.787,176.812 3.721,177.344 4.006 M198.238 4.395 C 198.753 4.880,198.833 5.060,198.833 5.722 C 198.833 6.318,198.908 6.528,199.167 6.667 C 199.437 6.811,199.500 7.016,199.500 7.745 C 199.500 8.498,199.554 8.661,199.833 8.750 C 200.126 8.843,200.167 9.002,200.167 10.054 C 200.167 11.073,200.217 11.284,200.500 11.461 C 200.760 11.624,200.833 11.850,200.833 12.496 C 200.833 13.151,200.902 13.358,201.167 13.500 C 201.431 13.641,201.500 13.849,201.500 14.500 C 201.500 15.151,201.569 15.359,201.833 15.500 C 202.095 15.640,202.167 15.849,202.167 16.476 C 202.167 17.119,202.247 17.343,202.583 17.636 C 202.907 17.917,203.000 18.158,203.000 18.712 C 203.000 19.220,203.096 19.508,203.333 19.711 C 203.565 19.910,203.667 20.203,203.667 20.676 C 203.667 21.853,203.494 22.000,202.111 22.000 C 200.612 22.000,200.500 21.896,200.500 20.507 C 200.500 19.594,200.445 19.379,200.167 19.205 C 199.954 19.073,199.833 18.817,199.833 18.499 L 199.833 18.000 196.250 18.000 L 192.667 18.000 192.667 18.499 C 192.667 18.817,192.546 19.073,192.333 19.205 C 192.082 19.362,192.000 19.594,192.000 20.147 C 192.000 21.540,189.928 22.694,189.033 21.800 C 188.692 21.459,188.783 20.040,189.167 19.711 C 189.404 19.508,189.500 19.220,189.500 18.712 C 189.500 18.158,189.593 17.917,189.917 17.636 C 190.253 17.343,190.333 17.119,190.333 16.476 C 190.333 15.849,190.405 15.640,190.667 15.500 C 190.931 15.359,191.000 15.151,191.000 14.500 C 191.000 13.849,191.069 13.641,191.333 13.500 C 191.598 13.358,191.667 13.151,191.667 12.496 C 191.667 11.850,191.740 11.624,192.000 11.461 C 192.257 11.301,192.333 11.073,192.333 10.461 C 192.333 9.850,192.409 9.622,192.667 9.461 C 192.931 9.296,193.000 9.073,193.000 8.382 C 193.000 7.682,193.065 7.477,193.333 7.333 C 193.597 7.192,193.667 6.984,193.667 6.333 C 193.667 5.682,193.736 5.475,194.000 5.333 C 194.216 5.218,194.333 4.984,194.333 4.669 C 194.333 3.608,197.191 3.407,198.238 4.395 M209.403 3.934 C 209.638 4.025,209.667 4.871,209.667 11.768 L 209.667 19.500 213.571 19.500 C 217.974 19.500,218.000 19.507,218.000 20.690 C 218.000 22.069,218.277 22.000,212.758 22.000 C 210.064 22.000,207.742 21.954,207.597 21.899 C 207.171 21.735,207.198 4.262,207.625 4.013 C 207.949 3.824,208.995 3.778,209.403 3.934 M231.455 4.167 C 231.612 4.350,231.906 4.500,232.108 4.500 C 232.888 4.500,233.399 6.201,232.800 6.800 C 232.471 7.129,231.531 7.046,231.295 6.667 C 231.102 6.359,230.906 6.333,228.723 6.333 L 226.360 6.333 225.596 7.096 C 224.521 8.172,224.521 8.860,225.593 9.918 C 226.074 10.392,226.502 10.667,226.758 10.667 C 226.983 10.667,227.257 10.815,227.372 11.000 C 227.487 11.183,227.750 11.333,227.957 11.333 C 228.164 11.333,228.483 11.483,228.667 11.667 C 228.890 11.890,229.222 12.000,229.675 12.000 C 230.180 12.000,230.446 12.104,230.735 12.417 C 230.986 12.687,231.302 12.833,231.633 12.833 C 231.998 12.833,232.174 12.929,232.250 13.167 C 232.308 13.350,232.463 13.500,232.595 13.500 C 232.726 13.500,232.833 13.572,232.833 13.659 C 232.833 13.747,233.171 14.141,233.583 14.534 L 234.332 15.250 234.333 16.786 C 234.333 18.151,234.296 18.341,234.000 18.500 C 233.796 18.609,233.667 18.849,233.667 19.118 C 233.667 19.916,232.022 21.333,231.096 21.333 C 230.516 21.333,230.305 21.409,230.167 21.667 C 229.997 21.983,229.818 22.000,226.662 22.000 C 223.517 22.000,223.325 21.982,223.128 21.667 C 223.008 21.474,222.739 21.333,222.493 21.333 C 221.861 21.333,221.667 21.033,221.667 20.056 C 221.667 18.893,222.672 18.312,223.205 19.167 C 223.525 19.678,228.822 19.678,229.333 19.167 C 229.517 18.983,229.813 18.833,229.991 18.833 C 230.731 18.833,231.167 18.132,231.167 16.939 C 231.167 16.090,231.111 15.833,230.928 15.833 C 230.797 15.833,230.642 15.683,230.583 15.500 C 230.504 15.250,230.331 15.167,229.890 15.167 C 229.442 15.167,229.281 15.087,229.215 14.833 C 229.150 14.584,228.988 14.500,228.570 14.500 C 228.182 14.500,227.957 14.398,227.833 14.167 C 227.692 13.903,227.484 13.833,226.833 13.833 C 226.182 13.833,225.975 13.764,225.833 13.500 C 225.717 13.283,225.484 13.167,225.167 13.167 C 224.849 13.167,224.616 13.050,224.500 12.833 C 224.392 12.631,224.151 12.500,223.887 12.500 C 223.291 12.500,222.337 11.557,222.335 10.964 C 222.334 10.684,222.207 10.444,222.000 10.333 C 221.710 10.178,221.667 9.984,221.667 8.833 C 221.667 7.682,221.710 7.489,222.000 7.333 C 222.201 7.226,222.333 6.984,222.333 6.726 C 222.333 5.982,224.045 4.500,224.906 4.500 C 225.386 4.500,225.678 4.400,225.878 4.167 C 226.140 3.861,226.370 3.833,228.667 3.833 C 230.964 3.833,231.193 3.861,231.455 4.167 M261.067 4.433 C 261.592 4.959,261.667 5.135,261.667 5.850 C 261.667 6.437,261.732 6.667,261.899 6.667 C 262.203 6.667,262.333 7.034,262.333 7.890 C 262.333 8.406,262.420 8.640,262.667 8.795 C 262.948 8.970,263.000 9.183,263.000 10.162 C 263.000 11.151,263.049 11.348,263.333 11.500 C 263.597 11.641,263.667 11.849,263.667 12.500 C 263.667 13.151,263.736 13.359,264.000 13.500 C 264.264 13.641,264.333 13.849,264.333 14.500 C 264.333 15.151,264.403 15.359,264.667 15.500 C 264.937 15.645,265.000 15.849,265.000 16.578 C 265.000 17.331,265.054 17.495,265.333 17.583 C 265.612 17.672,265.667 17.836,265.667 18.589 C 265.667 19.324,265.729 19.522,266.008 19.671 C 266.304 19.830,266.342 19.988,266.299 20.885 L 266.250 21.917 264.833 21.917 L 263.417 21.917 263.368 20.634 C 263.326 19.531,263.274 19.337,262.993 19.248 C 262.752 19.171,262.667 18.994,262.667 18.572 L 262.667 18.000 259.083 18.000 L 255.500 18.000 255.500 18.494 C 255.500 18.818,255.385 19.050,255.167 19.167 C 254.907 19.305,254.833 19.516,254.833 20.113 C 254.833 21.538,252.775 22.709,251.867 21.800 C 251.514 21.447,251.612 19.874,252.000 19.667 C 252.265 19.525,252.333 19.318,252.333 18.662 C 252.333 18.017,252.406 17.791,252.667 17.628 C 252.924 17.467,253.000 17.239,253.000 16.628 C 253.000 16.017,253.076 15.789,253.333 15.628 C 253.591 15.467,253.667 15.239,253.667 14.628 C 253.667 14.017,253.743 13.789,254.000 13.628 C 254.230 13.485,254.334 13.238,254.336 12.835 C 254.339 11.964,254.499 11.523,254.851 11.411 C 255.107 11.330,255.167 11.148,255.167 10.446 C 255.167 9.761,255.236 9.537,255.500 9.372 C 255.760 9.209,255.833 8.983,255.833 8.338 C 255.833 7.682,255.902 7.475,256.167 7.333 C 256.431 7.192,256.500 6.984,256.500 6.333 C 256.500 5.682,256.569 5.475,256.833 5.333 C 257.050 5.218,257.167 4.984,257.167 4.669 C 257.167 3.581,260.040 3.407,261.067 4.433 M271.511 4.006 C 271.717 4.116,271.833 4.355,271.833 4.667 C 271.833 4.984,271.950 5.217,272.167 5.333 C 272.384 5.449,272.500 5.682,272.500 6.000 C 272.500 6.318,272.616 6.551,272.833 6.667 C 273.050 6.783,273.167 7.016,273.167 7.333 C 273.167 7.651,273.283 7.884,273.500 8.000 C 273.702 8.108,273.833 8.349,273.833 8.612 C 273.833 8.860,274.011 9.210,274.250 9.431 C 274.479 9.644,274.667 9.992,274.667 10.205 C 274.667 10.418,274.817 10.721,275.000 10.878 C 275.183 11.035,275.333 11.335,275.333 11.545 C 275.333 11.754,275.483 12.054,275.667 12.211 C 275.863 12.379,276.000 12.703,276.000 12.998 C 276.000 13.316,276.085 13.500,276.232 13.500 C 276.536 13.500,276.667 13.868,276.667 14.724 C 276.667 15.239,276.753 15.474,277.000 15.628 C 277.202 15.754,277.333 16.017,277.333 16.295 C 277.333 16.573,277.465 16.835,277.667 16.961 C 277.879 17.094,278.000 17.350,278.000 17.668 C 278.000 17.942,278.075 18.167,278.167 18.167 C 278.275 18.167,278.333 15.724,278.333 11.173 C 278.333 3.299,278.241 3.830,279.614 3.836 C 280.740 3.840,280.674 3.237,280.626 13.011 L 280.583 21.917 278.833 21.917 L 277.083 21.917 277.031 21.370 C 277.000 21.052,276.843 20.738,276.656 20.621 C 276.472 20.507,276.333 20.234,276.333 19.990 C 276.333 19.739,276.160 19.409,275.917 19.198 C 275.688 18.999,275.500 18.664,275.500 18.455 C 275.500 18.245,275.350 17.946,275.167 17.789 C 274.970 17.621,274.833 17.297,274.833 17.002 C 274.833 16.684,274.748 16.500,274.601 16.500 C 274.339 16.500,274.167 16.147,274.167 15.610 C 274.167 15.410,274.017 15.153,273.833 15.039 C 273.631 14.912,273.500 14.650,273.500 14.372 C 273.500 14.094,273.369 13.832,273.167 13.705 C 272.965 13.579,272.833 13.317,272.833 13.039 C 272.833 12.761,272.702 12.498,272.500 12.372 C 272.289 12.240,272.167 11.983,272.167 11.671 C 272.167 11.349,272.051 11.117,271.833 11.000 C 271.569 10.859,271.500 10.651,271.500 10.000 C 271.500 9.349,271.431 9.141,271.167 9.000 C 270.951 8.884,270.833 8.651,270.833 8.337 C 270.833 8.071,270.758 7.807,270.667 7.750 C 270.557 7.682,270.500 10.015,270.500 14.623 C 270.500 19.827,270.449 21.651,270.300 21.800 C 269.954 22.146,268.374 22.055,268.173 21.678 C 267.858 21.089,267.942 4.415,268.262 4.095 C 268.570 3.787,270.979 3.721,271.511 4.006 M291.500 4.167 C 291.722 4.389,292.056 4.500,292.500 4.500 C 293.548 4.500,296.500 7.484,296.500 8.543 C 296.500 9.073,296.585 9.306,296.833 9.461 C 297.146 9.657,297.167 9.850,297.167 12.583 C 297.167 15.317,297.146 15.510,296.833 15.705 C 296.576 15.866,296.500 16.094,296.500 16.708 C 296.500 17.297,296.414 17.577,296.167 17.789 C 295.983 17.946,295.833 18.237,295.833 18.437 C 295.833 18.789,294.787 20.000,294.483 20.000 C 294.401 20.000,294.333 20.104,294.333 20.232 C 294.333 20.501,293.978 20.667,293.403 20.667 C 293.170 20.667,293.000 20.764,293.000 20.899 C 293.000 21.203,292.632 21.333,291.776 21.333 C 291.258 21.333,291.026 21.419,290.870 21.670 C 290.669 21.993,290.516 22.005,287.288 21.962 L 283.917 21.917 283.874 13.102 C 283.842 6.731,283.883 4.225,284.019 4.061 C 284.365 3.644,291.072 3.739,291.500 4.167 M327.511 4.006 C 327.903 4.215,327.980 5.837,327.613 6.142 C 327.482 6.251,326.393 6.343,324.905 6.370 L 322.417 6.417 322.333 14.167 L 322.250 21.917 321.167 21.917 L 320.083 21.917 320.000 14.167 L 319.917 6.417 317.428 6.370 C 315.940 6.343,314.851 6.251,314.720 6.142 C 314.374 5.855,314.429 4.224,314.792 4.013 C 315.193 3.780,327.075 3.773,327.511 4.006 M339.955 4.167 C 340.112 4.350,340.408 4.500,340.613 4.500 C 341.157 4.500,342.833 6.184,342.833 6.730 C 342.833 6.984,342.967 7.226,343.167 7.333 C 343.437 7.478,343.500 7.682,343.500 8.411 C 343.500 9.164,343.554 9.328,343.833 9.417 C 344.152 9.518,344.167 9.669,344.167 12.922 C 344.167 16.151,344.150 16.331,343.833 16.500 C 343.616 16.616,343.500 16.849,343.500 17.167 C 343.500 17.484,343.384 17.717,343.167 17.833 C 342.964 17.942,342.833 18.182,342.833 18.447 C 342.833 19.063,340.563 21.333,339.947 21.333 C 339.682 21.333,339.442 21.464,339.333 21.667 C 339.168 21.976,338.984 22.000,336.833 22.000 C 334.682 22.000,334.499 21.976,334.333 21.667 C 334.226 21.467,333.984 21.333,333.730 21.333 C 333.184 21.333,331.500 19.657,331.500 19.113 C 331.500 18.908,331.350 18.612,331.167 18.455 C 330.930 18.252,330.833 17.964,330.833 17.455 C 330.833 16.947,330.737 16.658,330.500 16.455 C 330.188 16.188,330.167 15.964,330.167 12.920 C 330.167 9.850,330.185 9.658,330.500 9.461 C 330.702 9.335,330.833 9.073,330.833 8.795 C 330.833 8.517,330.965 8.254,331.167 8.128 C 331.352 8.012,331.500 7.739,331.500 7.514 C 331.500 6.982,334.015 4.500,334.553 4.500 C 334.755 4.500,335.013 4.350,335.128 4.167 C 335.319 3.861,335.517 3.833,337.503 3.833 C 339.464 3.833,339.697 3.865,339.955 4.167 M355.667 4.167 C 355.850 4.350,356.147 4.500,356.326 4.500 C 356.827 4.500,358.500 6.215,358.500 6.730 C 358.500 6.984,358.634 7.226,358.833 7.333 C 359.093 7.472,359.167 7.682,359.167 8.278 C 359.167 8.882,359.255 9.127,359.583 9.431 C 359.999 9.816,360.000 9.825,360.000 12.917 C 360.000 16.008,359.999 16.017,359.583 16.402 C 359.345 16.623,359.167 16.973,359.167 17.222 C 359.167 17.484,359.035 17.725,358.833 17.833 C 358.631 17.942,358.500 18.182,358.500 18.447 C 358.500 19.037,356.231 21.333,355.648 21.333 C 355.427 21.333,355.153 21.483,355.039 21.667 C 354.847 21.974,354.650 22.000,352.483 22.000 C 350.276 22.000,350.130 21.980,350.048 21.667 C 349.986 21.429,349.821 21.333,349.473 21.333 C 348.886 21.333,347.167 19.661,347.167 19.091 C 347.167 18.898,347.017 18.612,346.833 18.455 C 346.586 18.244,346.500 17.964,346.500 17.375 C 346.500 16.761,346.424 16.533,346.167 16.372 C 345.852 16.176,345.833 15.983,345.833 12.999 C 345.833 10.056,345.857 9.810,346.167 9.500 C 346.350 9.317,346.500 9.017,346.500 8.833 C 346.500 8.650,346.650 8.350,346.833 8.167 C 347.017 7.983,347.167 7.683,347.167 7.500 C 347.167 7.058,349.725 4.500,350.167 4.500 C 350.350 4.500,350.650 4.350,350.833 4.167 C 351.337 3.663,355.163 3.663,355.667 4.167 M366.403 3.934 C 366.638 4.025,366.667 4.871,366.667 11.768 L 366.667 19.500 370.571 19.500 C 374.997 19.500,375.000 19.501,375.000 20.730 C 375.000 22.063,375.233 22.011,369.500 21.961 L 364.417 21.917 364.373 13.083 C 364.333 4.927,364.351 4.234,364.613 4.042 C 364.910 3.824,365.951 3.761,366.403 3.934 M388.455 4.167 C 388.612 4.350,388.906 4.500,389.108 4.500 C 389.888 4.500,390.399 6.201,389.800 6.800 C 389.471 7.129,388.531 7.046,388.295 6.667 C 388.102 6.359,387.906 6.333,385.723 6.333 L 383.360 6.333 382.596 7.096 C 381.521 8.172,381.521 8.860,382.593 9.918 C 383.011 10.330,383.499 10.667,383.676 10.667 C 383.854 10.667,384.150 10.817,384.333 11.000 C 384.517 11.183,384.817 11.333,385.000 11.333 C 385.183 11.333,385.483 11.483,385.667 11.667 C 385.890 11.890,386.222 12.000,386.675 12.000 C 387.180 12.000,387.446 12.104,387.735 12.417 C 387.986 12.687,388.302 12.833,388.633 12.833 C 388.998 12.833,389.174 12.929,389.250 13.167 C 389.308 13.350,389.463 13.500,389.595 13.500 C 389.726 13.500,389.833 13.572,389.833 13.659 C 389.833 13.747,390.171 14.141,390.583 14.534 L 391.332 15.250 391.333 16.786 C 391.333 18.151,391.296 18.341,391.000 18.500 C 390.796 18.609,390.667 18.849,390.667 19.118 C 390.667 19.916,389.022 21.333,388.096 21.333 C 387.516 21.333,387.305 21.409,387.167 21.667 C 386.997 21.983,386.818 22.000,383.662 22.000 C 380.517 22.000,380.325 21.982,380.128 21.667 C 380.008 21.474,379.739 21.333,379.493 21.333 C 378.861 21.333,378.667 21.033,378.667 20.056 C 378.667 18.893,379.672 18.312,380.205 19.167 C 380.525 19.678,385.822 19.678,386.333 19.167 C 386.517 18.983,386.813 18.833,386.991 18.833 C 387.731 18.833,388.167 18.132,388.167 16.939 C 388.167 16.090,388.111 15.833,387.928 15.833 C 387.797 15.833,387.642 15.683,387.583 15.500 C 387.504 15.250,387.331 15.167,386.890 15.167 C 386.442 15.167,386.281 15.087,386.215 14.833 C 386.150 14.584,385.988 14.500,385.570 14.500 C 385.182 14.500,384.957 14.398,384.833 14.167 C 384.692 13.903,384.484 13.833,383.833 13.833 C 383.182 13.833,382.975 13.764,382.833 13.500 C 382.717 13.282,382.484 13.167,382.162 13.167 C 381.850 13.167,381.593 13.045,381.461 12.833 C 381.347 12.650,381.073 12.500,380.853 12.500 C 380.291 12.500,379.337 11.535,379.335 10.964 C 379.334 10.684,379.207 10.444,379.000 10.333 C 378.710 10.178,378.667 9.984,378.667 8.833 C 378.667 7.682,378.710 7.489,379.000 7.333 C 379.201 7.226,379.333 6.984,379.333 6.726 C 379.333 5.982,381.045 4.500,381.906 4.500 C 382.386 4.500,382.678 4.400,382.878 4.167 C 383.140 3.861,383.370 3.833,385.667 3.833 C 387.964 3.833,388.193 3.861,388.455 4.167 M21.333 6.599 C 21.333 6.745,21.186 6.903,21.006 6.950 C 20.825 6.997,20.633 7.178,20.578 7.351 C 20.523 7.525,20.375 7.667,20.250 7.667 C 20.125 7.667,19.975 7.817,19.917 8.000 C 19.858 8.183,19.703 8.333,19.572 8.333 C 19.397 8.333,19.333 8.555,19.333 9.168 C 19.333 9.797,19.251 10.074,19.000 10.289 C 18.695 10.550,18.667 10.780,18.667 12.997 C 18.667 15.239,18.691 15.435,19.000 15.628 C 19.251 15.785,19.333 16.017,19.333 16.567 C 19.333 17.244,19.415 17.381,20.418 18.399 L 21.503 19.500 23.192 19.500 L 24.882 19.500 25.873 18.500 C 26.418 17.950,26.932 17.500,27.015 17.500 C 27.099 17.500,27.167 17.090,27.167 16.589 C 27.167 15.849,27.229 15.645,27.500 15.500 C 27.813 15.333,27.833 15.151,27.833 12.583 C 27.833 10.016,27.813 9.834,27.500 9.667 C 27.303 9.561,27.167 9.318,27.167 9.072 C 27.167 8.778,26.823 8.312,26.006 7.494 L 24.845 6.333 23.089 6.333 C 21.594 6.333,21.333 6.373,21.333 6.599 M129.944 6.444 C 129.883 6.506,129.833 7.781,129.833 9.278 L 129.833 12.000 131.750 12.000 C 133.277 12.000,133.667 11.953,133.667 11.768 C 133.667 11.499,134.022 11.333,134.597 11.333 C 134.933 11.333,135.000 11.251,135.000 10.835 C 135.000 10.517,135.121 10.261,135.333 10.128 C 136.062 9.673,135.805 8.123,134.841 7.159 L 134.016 6.333 132.036 6.333 C 130.947 6.333,130.006 6.383,129.944 6.444 M196.197 7.050 C 196.174 7.664,196.070 7.939,195.750 8.235 C 195.422 8.539,195.333 8.785,195.333 9.388 C 195.333 9.984,195.259 10.195,195.000 10.333 C 194.730 10.478,194.667 10.682,194.667 11.411 C 194.667 12.164,194.612 12.328,194.333 12.417 C 194.054 12.505,194.000 12.669,194.000 13.422 C 194.000 14.160,193.938 14.355,193.657 14.505 C 193.437 14.623,193.332 14.820,193.365 15.053 C 193.415 15.408,193.482 15.418,196.208 15.462 C 198.739 15.504,199.506 15.396,198.750 15.106 C 198.559 15.033,198.500 14.718,198.500 13.766 C 198.500 12.669,198.461 12.510,198.167 12.417 C 197.886 12.328,197.833 12.164,197.833 11.390 C 197.833 10.624,197.780 10.455,197.515 10.386 C 197.161 10.293,197.006 9.873,197.002 8.998 C 197.001 8.601,196.896 8.349,196.676 8.211 C 196.437 8.062,196.335 7.776,196.290 7.129 L 196.228 6.250 196.197 7.050 M258.958 6.429 C 258.890 6.498,258.833 6.915,258.833 7.355 C 258.833 7.984,258.762 8.193,258.500 8.333 C 258.236 8.475,258.167 8.682,258.167 9.333 C 258.167 9.984,258.097 10.192,257.833 10.333 C 257.569 10.475,257.500 10.682,257.500 11.338 C 257.500 11.983,257.427 12.209,257.167 12.372 C 256.909 12.533,256.833 12.761,256.833 13.372 C 256.833 13.983,256.757 14.211,256.500 14.372 C 256.297 14.498,256.167 14.761,256.167 15.040 L 256.167 15.500 259.000 15.500 C 260.558 15.500,261.833 15.463,261.833 15.417 C 261.833 15.371,261.683 15.183,261.500 15.000 C 261.237 14.737,261.167 14.444,261.167 13.620 C 261.167 12.780,261.101 12.518,260.833 12.289 C 260.596 12.086,260.500 11.797,260.500 11.289 C 260.500 10.780,260.404 10.492,260.167 10.289 C 259.916 10.074,259.833 9.797,259.833 9.168 C 259.833 8.542,259.772 8.333,259.587 8.333 C 259.321 8.333,259.198 7.960,259.128 6.943 C 259.103 6.590,259.027 6.359,258.958 6.429 M286.278 6.444 C 286.217 6.506,286.167 9.468,286.167 13.028 L 286.167 19.500 287.963 19.500 C 289.553 19.500,289.792 19.462,290.045 19.167 C 290.251 18.926,290.536 18.833,291.074 18.833 C 291.939 18.833,292.667 18.259,292.667 17.577 C 292.667 17.350,292.814 17.077,293.000 16.961 C 293.202 16.835,293.333 16.573,293.333 16.295 C 293.333 16.017,293.465 15.754,293.667 15.628 C 293.978 15.433,294.000 15.239,294.000 12.632 C 294.000 10.016,293.980 9.834,293.667 9.667 C 293.469 9.561,293.333 9.318,293.333 9.070 C 293.333 8.495,291.839 7.000,291.264 7.000 C 291.016 7.000,290.772 6.864,290.667 6.667 C 290.486 6.330,286.590 6.133,286.278 6.444 M334.958 6.873 C 334.706 7.153,334.500 7.446,334.500 7.524 C 334.500 7.603,334.393 7.667,334.261 7.667 C 334.130 7.667,333.975 7.817,333.917 8.000 C 333.858 8.183,333.703 8.333,333.572 8.333 C 333.397 8.333,333.333 8.555,333.333 9.168 C 333.333 9.797,333.251 10.074,333.000 10.289 C 332.695 10.550,332.667 10.780,332.667 12.997 C 332.667 15.239,332.691 15.435,333.000 15.628 C 333.251 15.785,333.333 16.017,333.333 16.567 C 333.333 17.244,333.415 17.381,334.418 18.399 L 335.503 19.500 337.187 19.500 L 338.872 19.500 340.020 18.360 C 341.108 17.278,341.167 17.180,341.167 16.449 C 341.167 15.849,341.240 15.639,341.500 15.500 C 341.813 15.333,341.833 15.151,341.833 12.583 C 341.833 10.016,341.813 9.834,341.500 9.667 C 341.301 9.560,341.167 9.318,341.167 9.065 C 341.167 8.760,340.836 8.318,339.987 7.487 L 338.808 6.333 337.112 6.348 C 335.440 6.363,335.410 6.370,334.958 6.873 M350.125 7.506 C 349.073 8.581,349.000 8.705,349.000 9.405 C 349.000 9.984,348.924 10.196,348.667 10.333 C 348.357 10.499,348.333 10.682,348.333 12.966 C 348.333 15.239,348.358 15.435,348.667 15.628 C 348.918 15.785,349.000 16.017,349.000 16.569 C 349.000 17.250,349.078 17.380,350.099 18.401 L 351.198 19.500 353.015 19.500 C 354.482 19.500,354.833 19.454,354.833 19.261 C 354.833 19.130,354.983 18.975,355.167 18.917 C 355.350 18.858,355.500 18.708,355.500 18.583 C 355.500 18.458,355.650 18.308,355.833 18.250 C 356.017 18.192,356.167 18.042,356.167 17.917 C 356.167 17.792,356.317 17.642,356.500 17.583 C 356.780 17.494,356.833 17.331,356.833 16.556 C 356.833 15.776,356.884 15.622,357.167 15.548 C 357.483 15.465,357.500 15.321,357.500 12.653 C 357.500 10.016,357.480 9.834,357.167 9.667 C 356.970 9.561,356.833 9.318,356.833 9.072 C 356.833 8.778,356.490 8.312,355.672 7.494 L 354.511 6.333 352.881 6.345 L 351.250 6.357 350.125 7.506 " stroke="none" fill="#fcfcfc" fill-rule="evenodd"></path><path id="path1" d="M0.833 4.333 C 0.833 4.425,0.983 4.650,1.167 4.833 C 1.350 5.017,1.500 5.337,1.500 5.546 C 1.500 5.755,1.650 6.054,1.833 6.211 C 2.017 6.368,2.167 6.668,2.167 6.878 C 2.167 7.088,2.317 7.388,2.500 7.545 C 2.683 7.702,2.833 8.002,2.833 8.211 C 2.833 8.421,2.983 8.721,3.167 8.878 C 3.350 9.035,3.500 9.336,3.500 9.548 C 3.500 9.777,3.770 10.196,4.167 10.583 C 4.534 10.942,4.833 11.394,4.833 11.591 C 4.833 11.788,4.983 12.084,5.167 12.250 C 5.350 12.416,5.500 12.716,5.500 12.917 C 5.500 13.117,5.650 13.417,5.833 13.583 C 6.017 13.749,6.167 14.049,6.167 14.250 C 6.167 14.451,6.317 14.751,6.500 14.917 C 6.811 15.198,6.833 15.430,6.833 18.326 C 6.833 21.753,6.856 21.833,7.833 21.833 C 8.811 21.833,8.833 21.755,8.833 18.301 C 8.833 15.350,8.853 15.157,9.167 14.961 C 9.369 14.835,9.500 14.573,9.500 14.295 C 9.500 14.017,9.631 13.754,9.833 13.628 C 10.028 13.506,10.167 13.239,10.167 12.986 C 10.167 12.747,10.317 12.416,10.500 12.250 C 10.683 12.084,10.833 11.788,10.833 11.591 C 10.833 11.394,11.132 10.942,11.500 10.583 C 11.868 10.224,12.167 9.772,12.167 9.575 C 12.167 9.379,12.317 9.083,12.500 8.917 C 12.683 8.751,12.833 8.439,12.833 8.223 C 12.833 8.008,13.021 7.668,13.250 7.469 C 13.493 7.257,13.667 6.927,13.667 6.677 C 13.667 6.427,13.807 6.159,14.000 6.039 C 14.202 5.912,14.333 5.650,14.333 5.372 C 14.333 5.091,14.465 4.831,14.673 4.701 C 15.224 4.357,14.887 4.167,13.727 4.167 C 12.492 4.167,11.667 4.726,11.667 5.565 C 11.667 5.818,11.532 6.060,11.333 6.167 C 11.116 6.283,11.000 6.516,11.000 6.833 C 11.000 7.151,10.884 7.384,10.667 7.500 C 10.449 7.617,10.333 7.849,10.333 8.171 C 10.333 8.483,10.211 8.740,10.000 8.872 C 9.743 9.033,9.667 9.261,9.667 9.872 C 9.667 10.483,9.591 10.711,9.333 10.872 C 9.145 10.990,8.999 11.262,8.998 11.498 C 8.996 11.974,7.954 13.094,7.675 12.922 C 7.579 12.862,7.500 12.596,7.500 12.329 C 7.500 12.016,7.383 11.782,7.167 11.667 C 6.965 11.558,6.833 11.318,6.833 11.055 C 6.833 10.807,6.655 10.457,6.417 10.235 C 6.188 10.023,6.000 9.675,6.000 9.462 C 6.000 9.248,5.850 8.946,5.667 8.789 C 5.483 8.632,5.333 8.332,5.333 8.122 C 5.333 7.912,5.183 7.612,5.000 7.455 C 4.817 7.298,4.667 6.998,4.667 6.789 C 4.667 6.579,4.517 6.279,4.333 6.122 C 4.150 5.965,4.000 5.662,4.000 5.449 C 4.000 4.669,3.196 4.167,1.949 4.167 C 1.316 4.167,0.833 4.239,0.833 4.333 M21.167 4.500 C 21.061 4.697,20.818 4.833,20.572 4.833 C 20.278 4.833,19.812 5.177,18.994 5.994 C 18.177 6.812,17.833 7.278,17.833 7.572 C 17.833 7.818,17.697 8.061,17.500 8.167 C 17.282 8.283,17.167 8.516,17.167 8.838 C 17.167 9.150,17.045 9.407,16.833 9.539 C 16.519 9.735,16.500 9.927,16.500 12.920 C 16.500 15.886,16.522 16.111,16.833 16.378 C 17.072 16.582,17.167 16.870,17.167 17.389 C 17.167 17.903,17.264 18.203,17.500 18.417 C 17.683 18.583,17.833 18.878,17.833 19.074 C 17.833 19.527,19.313 21.000,19.768 21.000 C 19.955 21.000,20.285 21.187,20.500 21.417 C 20.876 21.817,20.971 21.833,22.927 21.833 C 24.913 21.833,24.968 21.823,25.235 21.417 C 25.400 21.164,25.665 21.000,25.908 21.000 C 26.486 21.000,28.667 18.841,28.667 18.268 C 28.667 18.016,28.801 17.773,29.000 17.667 C 29.217 17.551,29.333 17.318,29.333 17.000 C 29.333 16.682,29.450 16.449,29.667 16.333 C 29.982 16.165,30.000 15.984,30.000 13.020 C 30.000 10.097,29.977 9.865,29.667 9.583 C 29.434 9.373,29.333 9.070,29.333 8.583 C 29.333 8.097,29.232 7.794,29.000 7.583 C 28.817 7.417,28.667 7.122,28.667 6.927 C 28.667 6.469,27.022 4.833,26.562 4.833 C 26.373 4.833,26.083 4.683,25.917 4.500 C 25.645 4.200,25.403 4.167,23.480 4.167 C 21.516 4.167,21.331 4.193,21.167 4.500 M37.539 4.500 C 37.380 4.754,37.150 4.833,36.574 4.833 C 35.663 4.833,34.167 6.122,34.167 6.907 C 34.167 7.150,34.024 7.419,33.833 7.539 C 33.554 7.713,33.500 7.927,33.500 8.868 C 33.500 9.818,33.551 10.015,33.833 10.167 C 34.041 10.278,34.167 10.516,34.167 10.798 C 34.167 11.370,34.979 12.167,35.563 12.167 C 35.818 12.167,36.060 12.300,36.167 12.500 C 36.283 12.718,36.516 12.833,36.838 12.833 C 37.150 12.833,37.407 12.955,37.539 13.167 C 37.698 13.421,37.927 13.500,38.510 13.500 C 39.116 13.500,39.348 13.586,39.636 13.917 C 39.835 14.146,40.169 14.333,40.379 14.333 C 40.588 14.333,40.888 14.483,41.045 14.667 C 41.202 14.850,41.504 15.000,41.717 15.000 C 42.981 15.000,43.552 17.641,42.513 18.679 C 42.230 18.962,41.848 19.167,41.602 19.167 C 41.349 19.167,41.107 19.301,41.000 19.500 C 40.719 20.025,35.145 20.013,34.777 19.487 C 34.606 19.244,34.393 19.157,34.059 19.196 C 33.351 19.277,33.317 20.886,34.021 20.967 C 34.262 20.995,34.631 21.202,34.842 21.426 C 35.447 22.070,41.074 22.063,41.636 21.417 C 41.917 21.093,42.158 21.000,42.713 21.000 C 43.572 21.000,45.000 19.746,45.000 18.993 C 45.000 18.761,45.146 18.489,45.333 18.372 C 45.624 18.190,45.667 17.983,45.667 16.743 L 45.667 15.322 44.506 14.161 C 43.682 13.337,43.223 13.000,42.924 13.000 C 42.683 13.000,42.414 12.857,42.295 12.667 C 42.135 12.412,41.906 12.333,41.319 12.333 C 40.763 12.333,40.468 12.241,40.250 12.000 C 40.084 11.817,39.784 11.667,39.583 11.667 C 39.383 11.667,39.083 11.517,38.917 11.333 C 38.751 11.150,38.449 11.000,38.247 11.000 C 38.028 11.000,37.530 10.657,37.023 10.157 C 35.776 8.930,35.782 8.119,37.047 6.869 L 37.927 6.000 40.298 6.000 C 42.619 6.000,42.676 6.009,43.031 6.417 C 43.729 7.220,44.387 6.817,44.302 5.637 C 44.253 4.959,44.218 4.914,43.709 4.864 C 43.382 4.833,43.099 4.684,42.994 4.489 C 42.725 3.986,37.854 3.995,37.539 4.500 M48.619 4.270 C 48.398 4.491,48.477 21.411,48.700 21.633 C 48.810 21.743,49.170 21.833,49.500 21.833 C 50.494 21.833,50.500 21.808,50.500 17.667 C 50.500 14.959,50.556 13.844,50.700 13.700 C 50.946 13.454,58.115 13.420,58.500 13.663 C 58.707 13.793,58.764 14.506,58.833 17.785 L 58.917 21.750 59.750 21.750 L 60.583 21.750 60.583 13.000 L 60.583 4.250 59.708 4.200 L 58.833 4.149 58.833 7.721 C 58.833 10.548,58.786 11.332,58.604 11.483 C 58.443 11.616,57.213 11.660,54.479 11.628 L 50.583 11.583 50.500 7.917 L 50.417 4.250 49.577 4.201 C 49.115 4.174,48.684 4.205,48.619 4.270 M64.907 4.561 C 64.852 4.780,64.832 5.175,64.862 5.438 L 64.917 5.917 66.776 5.964 C 68.074 5.996,68.690 6.078,68.819 6.233 C 68.949 6.390,68.991 8.426,68.960 13.103 L 68.917 19.750 67.006 19.797 C 64.914 19.849,64.840 19.886,64.836 20.855 C 64.832 21.845,64.818 21.843,70.104 21.794 L 74.917 21.750 74.917 20.833 L 74.917 19.917 73.000 19.833 L 71.083 19.750 71.040 13.011 C 71.006 7.730,71.042 6.243,71.206 6.139 C 71.322 6.065,72.227 6.004,73.217 6.003 L 75.017 6.000 74.967 5.125 L 74.917 4.250 69.962 4.206 L 65.008 4.162 64.907 4.561 M95.113 4.276 C 95.051 4.338,95.000 4.751,95.000 5.194 L 95.000 6.000 97.403 6.000 C 98.725 6.000,99.925 6.046,100.070 6.101 C 100.305 6.191,100.333 7.027,100.333 13.818 C 100.333 22.074,100.305 21.833,101.270 21.833 C 102.414 21.833,102.333 22.426,102.333 14.003 C 102.333 7.890,102.377 6.338,102.553 6.192 C 102.685 6.083,103.773 5.991,105.262 5.963 L 107.750 5.917 107.750 5.083 L 107.750 4.250 101.488 4.206 C 98.044 4.182,95.175 4.214,95.113 4.276 M112.780 4.275 C 112.563 4.492,112.647 21.414,112.867 21.633 C 113.013 21.779,114.333 21.833,117.763 21.833 C 123.032 21.833,122.890 21.867,122.802 20.637 L 122.750 19.917 118.750 19.833 L 114.750 19.750 114.705 16.815 C 114.648 13.165,114.205 13.517,118.930 13.462 L 122.750 13.417 122.750 12.583 L 122.750 11.750 118.750 11.667 L 114.750 11.583 114.704 8.982 C 114.647 5.719,114.230 6.017,118.930 5.962 L 122.750 5.917 122.750 5.083 L 122.750 4.250 117.822 4.206 C 115.111 4.182,112.843 4.213,112.780 4.275 M127.778 4.278 C 127.562 4.493,127.649 21.416,127.867 21.633 C 128.136 21.903,129.247 21.888,129.476 21.612 C 129.593 21.471,129.676 20.133,129.705 17.904 L 129.750 14.417 131.293 14.369 L 132.837 14.321 133.668 15.152 C 134.225 15.709,134.500 16.123,134.500 16.403 C 134.500 16.651,134.636 16.894,134.833 17.000 C 135.050 17.116,135.167 17.349,135.167 17.667 C 135.167 17.984,135.283 18.217,135.500 18.333 C 135.717 18.449,135.833 18.682,135.833 19.000 C 135.833 19.318,135.950 19.551,136.167 19.667 C 136.369 19.775,136.500 20.016,136.500 20.280 C 136.500 21.147,137.430 21.830,138.615 21.832 C 139.755 21.834,140.112 21.587,139.528 21.200 C 139.308 21.053,139.167 20.786,139.167 20.517 C 139.167 20.273,139.017 19.946,138.833 19.789 C 138.650 19.632,138.500 19.327,138.500 19.111 C 138.500 18.895,138.350 18.583,138.167 18.417 C 137.983 18.251,137.833 17.951,137.833 17.750 C 137.833 17.549,137.683 17.249,137.500 17.083 C 137.317 16.917,137.167 16.622,137.167 16.427 C 137.167 16.215,136.765 15.676,136.167 15.083 C 134.932 13.861,134.863 14.156,136.833 12.207 L 138.500 10.558 138.500 8.856 L 138.500 7.155 137.339 5.994 C 136.515 5.170,136.056 4.833,135.757 4.833 C 135.517 4.833,135.247 4.690,135.128 4.500 C 134.918 4.163,128.099 3.957,127.778 4.278 M143.444 4.278 C 143.383 4.339,143.333 5.221,143.333 6.238 C 143.333 7.906,143.301 8.107,143.000 8.295 C 142.679 8.495,142.667 8.683,142.667 13.412 C 142.667 18.151,142.655 18.328,142.333 18.500 C 141.938 18.712,141.829 21.262,142.200 21.633 C 142.477 21.911,144.243 21.893,144.478 21.610 C 144.606 21.456,144.676 19.155,144.707 14.152 C 144.749 7.042,144.756 6.917,145.083 6.917 C 145.365 6.917,145.425 7.045,145.469 7.748 C 145.504 8.304,145.628 8.678,145.844 8.879 C 146.067 9.086,146.167 9.402,146.167 9.897 C 146.167 10.403,146.265 10.704,146.500 10.917 C 146.732 11.127,146.833 11.430,146.833 11.917 C 146.833 12.403,146.934 12.706,147.167 12.917 C 147.412 13.139,147.500 13.430,147.500 14.020 C 147.500 14.642,147.572 14.860,147.823 14.994 C 148.017 15.099,148.166 15.382,148.198 15.709 C 148.314 16.914,150.167 16.488,150.167 15.255 C 150.167 14.763,150.267 14.461,150.500 14.250 C 150.741 14.032,150.833 13.737,150.833 13.181 C 150.833 12.594,150.912 12.365,151.167 12.205 C 151.427 12.043,151.500 11.817,151.500 11.171 C 151.500 10.516,151.569 10.308,151.833 10.167 C 152.050 10.051,152.167 9.818,152.167 9.500 C 152.167 9.187,152.283 8.949,152.491 8.838 C 152.738 8.706,152.828 8.453,152.866 7.790 C 152.909 7.045,152.965 6.917,153.250 6.917 C 153.577 6.917,153.585 7.056,153.667 14.333 L 153.750 21.750 154.806 21.800 C 156.337 21.872,156.333 21.879,156.333 19.093 C 156.333 16.777,156.325 16.719,155.917 16.364 L 155.500 16.002 155.500 10.532 L 155.500 5.062 155.024 4.606 C 154.324 3.936,152.446 3.996,152.366 4.691 C 152.338 4.934,152.169 5.264,151.991 5.425 C 151.764 5.630,151.667 5.937,151.667 6.444 C 151.667 7.010,151.575 7.248,151.250 7.531 C 150.919 7.819,150.833 8.050,150.833 8.657 C 150.833 9.239,150.754 9.469,150.500 9.628 C 150.240 9.791,150.167 10.017,150.167 10.662 C 150.167 11.318,150.098 11.525,149.833 11.667 C 149.570 11.808,149.500 12.016,149.500 12.663 C 149.500 13.112,149.422 13.529,149.326 13.588 C 148.978 13.803,148.667 13.298,148.667 12.520 C 148.667 11.927,148.589 11.698,148.333 11.539 C 148.076 11.378,148.000 11.150,148.000 10.539 C 148.000 9.927,147.924 9.699,147.667 9.539 C 147.385 9.363,147.333 9.150,147.333 8.171 C 147.333 7.182,147.284 6.985,147.000 6.833 C 146.738 6.693,146.667 6.484,146.667 5.859 C 146.667 4.645,146.095 4.167,144.644 4.167 C 144.045 4.167,143.506 4.217,143.444 4.278 M159.280 4.275 C 159.218 4.338,159.167 4.751,159.167 5.194 L 159.167 6.000 160.980 6.000 C 163.395 6.000,163.178 5.282,163.127 13.103 L 163.083 19.750 161.167 19.833 L 159.250 19.917 159.250 20.833 L 159.250 21.750 164.167 21.750 L 169.083 21.750 169.083 20.833 L 169.083 19.917 167.167 19.833 L 165.250 19.750 165.206 13.103 C 165.155 5.281,164.937 6.000,167.362 6.000 L 169.184 6.000 169.134 5.125 L 169.083 4.250 164.239 4.206 C 161.574 4.182,159.343 4.213,159.280 4.275 M174.243 4.375 C 174.199 4.490,174.183 8.446,174.207 13.167 L 174.250 21.750 175.083 21.750 L 175.917 21.750 176.000 14.722 C 176.046 10.857,176.136 7.641,176.201 7.576 C 176.454 7.324,176.833 7.671,176.833 8.156 C 176.833 8.484,176.947 8.716,177.167 8.833 C 177.431 8.975,177.500 9.182,177.500 9.833 C 177.500 10.484,177.569 10.692,177.833 10.833 C 178.051 10.950,178.167 11.182,178.167 11.504 C 178.167 11.817,178.289 12.073,178.500 12.205 C 178.693 12.326,178.833 12.594,178.833 12.843 C 178.833 13.094,179.007 13.424,179.250 13.636 C 179.479 13.835,179.667 14.169,179.667 14.379 C 179.667 14.588,179.817 14.888,180.000 15.045 C 180.183 15.202,180.333 15.507,180.333 15.723 C 180.333 15.938,180.483 16.251,180.667 16.417 C 180.850 16.583,181.000 16.883,181.000 17.083 C 181.000 17.284,181.150 17.584,181.333 17.750 C 181.517 17.916,181.667 18.216,181.667 18.417 C 181.667 18.617,181.817 18.917,182.000 19.083 C 182.183 19.249,182.333 19.580,182.333 19.819 C 182.333 20.073,182.472 20.340,182.667 20.461 C 182.875 20.591,183.000 20.850,183.000 21.150 C 183.000 21.752,183.209 21.833,184.743 21.833 C 186.475 21.833,186.343 22.603,186.293 12.814 L 186.250 4.250 185.333 4.250 L 184.417 4.250 184.373 11.241 C 184.329 18.364,184.290 18.781,183.714 18.303 C 183.596 18.206,183.500 17.928,183.500 17.686 C 183.500 17.427,183.363 17.161,183.167 17.039 C 182.955 16.907,182.833 16.650,182.833 16.338 C 182.833 16.016,182.718 15.783,182.500 15.667 C 182.236 15.525,182.167 15.318,182.167 14.667 C 182.167 14.016,182.097 13.808,181.833 13.667 C 181.616 13.551,181.500 13.318,181.500 13.000 C 181.500 12.682,181.384 12.449,181.167 12.333 C 180.949 12.217,180.833 11.984,180.833 11.662 C 180.833 11.350,180.711 11.093,180.500 10.961 C 180.305 10.840,180.167 10.573,180.167 10.319 C 180.167 10.080,180.017 9.749,179.833 9.583 C 179.650 9.417,179.500 9.117,179.500 8.917 C 179.500 8.716,179.350 8.416,179.167 8.250 C 178.983 8.084,178.833 7.784,178.833 7.583 C 178.833 7.383,178.683 7.083,178.500 6.917 C 178.317 6.751,178.167 6.452,178.167 6.253 C 178.167 6.054,177.979 5.715,177.750 5.500 C 177.496 5.262,177.333 4.924,177.333 4.638 L 177.333 4.167 175.828 4.167 C 174.778 4.167,174.299 4.230,174.243 4.375 M194.667 4.641 C 194.667 4.903,194.518 5.250,194.333 5.417 C 194.102 5.626,194.000 5.930,194.000 6.413 C 194.000 6.939,193.899 7.204,193.583 7.500 C 193.256 7.807,193.167 8.056,193.167 8.656 C 193.167 9.239,193.088 9.469,192.833 9.628 C 192.573 9.791,192.500 10.017,192.500 10.662 C 192.500 11.318,192.431 11.525,192.167 11.667 C 191.903 11.808,191.833 12.016,191.833 12.667 C 191.833 13.318,191.764 13.525,191.500 13.667 C 191.235 13.808,191.167 14.016,191.167 14.671 C 191.167 15.317,191.094 15.543,190.833 15.705 C 190.578 15.865,190.500 16.094,190.500 16.681 C 190.500 17.237,190.408 17.532,190.167 17.750 C 189.934 17.960,189.833 18.263,189.833 18.750 C 189.833 19.242,189.733 19.540,189.492 19.757 C 189.219 20.005,189.161 20.231,189.201 20.908 L 189.250 21.750 189.976 21.802 C 190.987 21.875,191.655 21.240,191.662 20.200 C 191.666 19.661,191.766 19.392,192.069 19.111 C 192.290 18.906,192.496 18.516,192.527 18.244 L 192.583 17.750 196.250 17.750 L 199.917 17.750 199.969 18.291 C 200.000 18.618,200.149 18.901,200.344 19.006 C 200.615 19.151,200.667 19.361,200.667 20.319 C 200.667 21.739,200.798 21.866,202.194 21.800 L 203.250 21.750 203.300 20.885 C 203.342 20.155,203.297 19.992,203.008 19.838 C 202.737 19.692,202.667 19.491,202.667 18.853 C 202.667 18.263,202.579 17.972,202.333 17.750 C 202.101 17.540,202.000 17.237,202.000 16.750 C 202.000 16.263,201.899 15.960,201.667 15.750 C 201.421 15.528,201.333 15.237,201.333 14.647 C 201.333 14.016,201.262 13.807,201.000 13.667 C 200.736 13.525,200.667 13.318,200.667 12.667 C 200.667 12.016,200.597 11.808,200.333 11.667 C 200.049 11.515,200.000 11.318,200.000 10.329 C 200.000 9.350,199.948 9.137,199.667 8.961 C 199.412 8.802,199.333 8.573,199.333 7.989 C 199.333 7.389,199.244 7.140,198.917 6.833 C 198.602 6.538,198.500 6.272,198.500 5.752 C 198.500 4.560,197.908 4.167,196.116 4.167 L 194.667 4.167 194.667 4.641 M207.619 4.270 C 207.373 4.516,207.480 21.443,207.729 21.649 C 207.891 21.783,209.358 21.826,212.770 21.794 L 217.583 21.750 217.583 20.833 L 217.583 19.917 213.583 19.833 L 209.583 19.750 209.500 12.000 L 209.417 4.250 208.577 4.201 C 208.115 4.174,207.684 4.205,207.619 4.270 M226.000 4.500 C 225.860 4.762,225.651 4.833,225.030 4.833 C 224.127 4.833,222.667 6.048,222.667 6.798 C 222.667 7.002,222.479 7.332,222.250 7.531 C 221.895 7.840,221.833 8.036,221.833 8.864 C 221.833 9.693,221.895 9.889,222.250 10.198 C 222.479 10.397,222.667 10.731,222.667 10.939 C 222.667 11.440,223.410 12.167,223.923 12.167 C 224.150 12.167,224.423 12.314,224.539 12.500 C 224.660 12.695,224.927 12.833,225.181 12.833 C 225.420 12.833,225.751 12.983,225.917 13.167 C 226.126 13.398,226.430 13.500,226.913 13.500 C 227.439 13.500,227.704 13.601,228.000 13.917 C 228.222 14.153,228.578 14.333,228.822 14.333 C 229.073 14.333,229.340 14.473,229.461 14.667 C 229.579 14.855,229.850 15.000,230.083 15.000 C 231.462 15.000,232.060 17.536,230.939 18.625 C 230.624 18.931,230.207 19.167,229.981 19.167 C 229.760 19.167,229.487 19.317,229.372 19.500 C 229.046 20.023,223.442 20.014,223.161 19.490 C 223.024 19.233,222.845 19.160,222.447 19.199 C 221.603 19.280,221.624 20.843,222.471 21.016 C 222.777 21.079,223.137 21.288,223.273 21.482 C 223.689 22.076,229.433 22.020,230.000 21.417 C 230.298 21.099,230.560 21.000,231.099 21.000 C 231.944 21.000,233.333 19.801,233.333 19.072 C 233.333 18.850,233.483 18.576,233.667 18.461 C 233.959 18.278,234.000 18.073,234.000 16.769 L 234.000 15.285 232.844 14.143 C 232.028 13.337,231.563 13.000,231.266 13.000 C 231.016 13.000,230.773 12.865,230.667 12.667 C 230.525 12.403,230.318 12.333,229.667 12.333 C 229.016 12.333,228.808 12.264,228.667 12.000 C 228.550 11.782,228.318 11.667,227.996 11.667 C 227.683 11.667,227.427 11.545,227.295 11.333 C 227.180 11.150,226.907 11.000,226.687 11.000 C 226.429 11.000,225.972 10.690,225.397 10.125 C 224.111 8.860,224.117 8.178,225.424 6.902 L 226.348 6.000 228.682 6.000 C 230.976 6.000,231.023 6.007,231.414 6.430 C 232.113 7.184,232.583 6.944,232.583 5.833 C 232.583 4.921,232.581 4.916,232.042 4.864 C 231.715 4.833,231.432 4.684,231.328 4.489 C 231.058 3.986,226.270 3.995,226.000 4.500 M257.444 4.278 C 257.383 4.339,257.333 4.599,257.333 4.855 C 257.333 5.151,257.211 5.387,257.000 5.500 C 256.738 5.640,256.667 5.849,256.667 6.480 C 256.667 7.070,256.579 7.361,256.333 7.583 C 256.101 7.794,256.000 8.097,256.000 8.583 C 256.000 9.070,255.899 9.373,255.667 9.583 C 255.421 9.805,255.333 10.097,255.333 10.687 C 255.333 11.318,255.262 11.526,255.000 11.667 C 254.736 11.808,254.667 12.016,254.667 12.667 C 254.667 13.318,254.597 13.525,254.333 13.667 C 254.069 13.808,254.000 14.016,254.000 14.667 C 254.000 15.318,253.931 15.525,253.667 15.667 C 253.402 15.808,253.333 16.016,253.333 16.671 C 253.333 17.317,253.260 17.543,253.000 17.705 C 252.745 17.865,252.667 18.094,252.667 18.681 C 252.667 19.242,252.575 19.531,252.326 19.757 C 252.052 20.005,251.995 20.231,252.034 20.908 L 252.083 21.750 252.799 21.802 C 253.792 21.873,254.500 21.151,254.500 20.067 C 254.500 19.517,254.582 19.285,254.833 19.128 C 255.030 19.005,255.167 18.739,255.167 18.480 C 255.167 17.695,255.366 17.657,259.188 17.705 L 262.750 17.750 262.802 18.291 C 262.834 18.618,262.983 18.901,263.177 19.006 C 263.448 19.150,263.500 19.361,263.500 20.306 C 263.500 20.961,263.584 21.517,263.700 21.633 C 263.960 21.893,265.707 21.893,265.967 21.633 C 266.311 21.289,266.218 20.039,265.833 19.833 C 265.569 19.692,265.500 19.484,265.500 18.829 C 265.500 18.183,265.427 17.957,265.167 17.795 C 264.912 17.635,264.833 17.406,264.833 16.819 C 264.833 16.263,264.741 15.968,264.500 15.750 C 264.268 15.540,264.167 15.237,264.167 14.750 C 264.167 14.263,264.066 13.960,263.833 13.750 C 263.597 13.536,263.500 13.237,263.500 12.723 C 263.500 12.157,263.408 11.918,263.083 11.636 C 262.715 11.316,262.667 11.141,262.667 10.142 C 262.667 9.182,262.616 8.985,262.333 8.833 C 262.072 8.693,262.000 8.484,262.000 7.865 C 262.000 7.280,261.913 7.000,261.667 6.789 C 261.429 6.585,261.333 6.297,261.333 5.783 C 261.333 4.563,260.755 4.167,258.977 4.167 C 258.195 4.167,257.506 4.217,257.444 4.278 M268.450 4.272 C 268.386 4.336,268.333 8.275,268.333 13.025 L 268.333 21.660 268.730 21.760 C 268.948 21.815,269.342 21.835,269.605 21.805 L 270.083 21.750 270.167 14.722 C 270.212 10.857,270.303 7.641,270.368 7.576 C 270.593 7.352,271.000 7.658,271.000 8.052 C 271.000 8.270,271.150 8.584,271.333 8.750 C 271.577 8.971,271.667 9.263,271.667 9.840 C 271.667 10.497,271.736 10.674,272.083 10.901 C 272.360 11.082,272.500 11.328,272.500 11.630 C 272.500 11.906,272.632 12.169,272.833 12.295 C 273.045 12.427,273.167 12.683,273.167 12.996 C 273.167 13.318,273.282 13.550,273.500 13.667 C 273.717 13.783,273.833 14.016,273.833 14.333 C 273.833 14.651,273.950 14.884,274.167 15.000 C 274.384 15.116,274.500 15.349,274.500 15.667 C 274.500 15.984,274.616 16.217,274.833 16.333 C 275.050 16.449,275.167 16.682,275.167 17.000 C 275.167 17.318,275.283 17.551,275.500 17.667 C 275.712 17.780,275.833 18.016,275.833 18.313 C 275.833 18.571,275.983 18.917,276.167 19.083 C 276.350 19.249,276.500 19.549,276.500 19.750 C 276.500 19.951,276.650 20.251,276.833 20.417 C 277.017 20.583,277.167 20.879,277.167 21.076 C 277.167 21.687,277.492 21.833,278.846 21.833 C 280.652 21.833,280.509 22.633,280.460 12.814 L 280.417 4.250 279.500 4.250 L 278.583 4.250 278.500 11.333 C 278.428 17.481,278.384 18.417,278.167 18.417 C 278.012 18.417,277.896 18.226,277.863 17.917 C 277.834 17.642,277.627 17.245,277.405 17.035 C 277.182 16.825,277.000 16.485,277.000 16.280 C 277.000 16.075,276.850 15.779,276.667 15.622 C 276.430 15.419,276.333 15.130,276.333 14.622 C 276.333 14.114,276.237 13.825,276.000 13.622 C 275.817 13.465,275.667 13.160,275.667 12.944 C 275.667 12.728,275.517 12.416,275.333 12.250 C 275.150 12.084,275.000 11.784,275.000 11.583 C 275.000 11.383,274.850 11.083,274.667 10.917 C 274.483 10.751,274.333 10.451,274.333 10.250 C 274.333 10.049,274.183 9.749,274.000 9.583 C 273.817 9.417,273.667 9.117,273.667 8.917 C 273.667 8.716,273.517 8.416,273.333 8.250 C 273.150 8.084,273.000 7.738,273.000 7.480 C 273.000 7.182,272.879 6.947,272.667 6.833 C 272.450 6.717,272.333 6.484,272.333 6.167 C 272.333 5.854,272.217 5.616,272.011 5.506 C 271.816 5.401,271.667 5.118,271.636 4.791 L 271.583 4.250 270.075 4.203 C 269.246 4.176,268.515 4.208,268.450 4.272 M284.111 4.278 C 283.896 4.493,283.982 21.416,284.200 21.633 C 284.651 22.084,290.385 21.896,290.802 21.417 C 291.083 21.093,291.325 21.000,291.879 21.000 C 292.386 21.000,292.675 20.904,292.878 20.667 C 293.035 20.483,293.322 20.333,293.515 20.333 C 294.063 20.333,295.500 18.866,295.500 18.307 C 295.500 18.016,295.623 17.779,295.833 17.667 C 296.097 17.525,296.167 17.318,296.167 16.667 C 296.167 16.016,296.236 15.808,296.500 15.667 C 296.814 15.499,296.833 15.318,296.833 12.618 C 296.833 9.927,296.812 9.734,296.500 9.539 C 296.247 9.380,296.167 9.150,296.167 8.577 C 296.167 7.420,293.580 4.833,292.423 4.833 C 291.850 4.833,291.620 4.753,291.461 4.500 C 291.251 4.163,284.432 3.957,284.111 4.278 M314.734 4.399 C 314.685 4.527,314.668 4.921,314.697 5.274 L 314.750 5.917 317.238 5.963 C 318.727 5.991,319.815 6.083,319.947 6.192 C 320.123 6.338,320.167 7.873,320.167 13.904 C 320.167 22.130,320.129 21.833,321.167 21.833 C 322.204 21.833,322.167 22.129,322.167 13.917 C 322.167 8.293,322.217 6.350,322.367 6.200 C 322.504 6.062,323.337 6.000,325.033 6.000 L 327.500 6.000 327.500 5.083 L 327.500 4.167 321.161 4.167 C 315.893 4.167,314.808 4.206,314.734 4.399 M335.167 4.500 C 335.061 4.697,334.818 4.833,334.572 4.833 C 333.989 4.833,331.833 6.989,331.833 7.572 C 331.833 7.818,331.697 8.061,331.500 8.167 C 331.282 8.283,331.167 8.516,331.167 8.838 C 331.167 9.150,331.045 9.407,330.833 9.539 C 330.519 9.735,330.500 9.927,330.500 12.931 C 330.500 15.903,330.522 16.135,330.833 16.417 C 331.066 16.627,331.167 16.930,331.167 17.417 C 331.167 17.903,331.268 18.206,331.500 18.417 C 331.683 18.583,331.833 18.878,331.833 19.074 C 331.833 19.527,333.313 21.000,333.768 21.000 C 333.955 21.000,334.285 21.187,334.500 21.417 C 334.876 21.817,334.971 21.833,336.927 21.833 C 338.913 21.833,338.968 21.823,339.235 21.417 C 339.397 21.168,339.666 21.000,339.898 21.000 C 340.467 21.000,342.667 18.828,342.667 18.266 C 342.667 18.016,342.802 17.773,343.000 17.667 C 343.217 17.551,343.333 17.318,343.333 17.000 C 343.333 16.682,343.450 16.449,343.667 16.333 C 343.982 16.165,344.000 15.984,344.000 12.996 C 344.000 10.017,343.981 9.824,343.667 9.628 C 343.412 9.469,343.333 9.239,343.333 8.652 C 343.333 8.097,343.241 7.802,343.000 7.583 C 342.817 7.417,342.667 7.122,342.667 6.927 C 342.667 6.469,341.022 4.833,340.562 4.833 C 340.373 4.833,340.083 4.683,339.917 4.500 C 339.645 4.200,339.403 4.167,337.480 4.167 C 335.516 4.167,335.331 4.193,335.167 4.500 M350.872 4.500 C 350.753 4.690,350.483 4.833,350.243 4.833 C 349.652 4.833,347.500 6.985,347.500 7.576 C 347.500 7.817,347.357 8.086,347.167 8.205 C 346.965 8.332,346.833 8.594,346.833 8.872 C 346.833 9.150,346.702 9.412,346.500 9.539 C 346.185 9.735,346.167 9.927,346.167 12.951 C 346.167 15.984,346.184 16.164,346.500 16.333 C 346.762 16.474,346.833 16.682,346.833 17.313 C 346.833 17.903,346.921 18.195,347.167 18.417 C 347.350 18.583,347.500 18.878,347.500 19.074 C 347.500 19.547,348.982 21.000,349.465 21.000 C 349.669 21.000,349.999 21.187,350.198 21.417 C 350.546 21.818,350.635 21.833,352.553 21.833 C 354.464 21.833,354.561 21.816,354.931 21.417 C 355.144 21.188,355.482 21.000,355.683 21.000 C 356.217 21.000,358.333 18.817,358.333 18.266 C 358.333 18.016,358.468 17.773,358.667 17.667 C 358.884 17.551,359.000 17.318,359.000 17.000 C 359.000 16.682,359.116 16.449,359.333 16.333 C 359.649 16.165,359.667 15.984,359.667 13.020 C 359.667 10.097,359.644 9.865,359.333 9.583 C 359.092 9.365,359.000 9.070,359.000 8.514 C 359.000 7.927,358.922 7.698,358.667 7.539 C 358.476 7.419,358.333 7.150,358.333 6.907 C 358.333 6.325,356.842 4.833,356.259 4.833 C 356.017 4.833,355.747 4.691,355.628 4.500 C 355.437 4.194,355.239 4.167,353.250 4.167 C 351.261 4.167,351.063 4.194,350.872 4.500 M364.619 4.270 C 364.398 4.491,364.477 21.411,364.700 21.633 C 364.935 21.868,374.104 21.921,374.469 21.690 C 374.613 21.598,374.669 21.275,374.635 20.734 L 374.583 19.917 370.583 19.833 L 366.583 19.750 366.500 12.000 L 366.417 4.250 365.577 4.201 C 365.115 4.174,364.684 4.205,364.619 4.270 M383.000 4.500 C 382.860 4.762,382.651 4.833,382.030 4.833 C 381.148 4.833,379.667 6.047,379.667 6.768 C 379.667 6.955,379.479 7.285,379.250 7.500 C 378.898 7.831,378.833 8.042,378.833 8.863 C 378.833 9.693,378.895 9.889,379.250 10.198 C 379.479 10.397,379.667 10.731,379.667 10.939 C 379.667 11.440,380.410 12.167,380.923 12.167 C 381.150 12.167,381.423 12.314,381.539 12.500 C 381.660 12.695,381.927 12.833,382.181 12.833 C 382.420 12.833,382.751 12.983,382.917 13.167 C 383.126 13.398,383.430 13.500,383.913 13.500 C 384.439 13.500,384.704 13.601,385.000 13.917 C 385.222 14.153,385.578 14.333,385.822 14.333 C 386.073 14.333,386.340 14.473,386.461 14.667 C 386.579 14.855,386.850 15.000,387.083 15.000 C 388.462 15.000,389.060 17.536,387.939 18.625 C 387.624 18.931,387.207 19.167,386.981 19.167 C 386.760 19.167,386.487 19.317,386.372 19.500 C 386.046 20.023,380.442 20.014,380.161 19.490 C 380.024 19.233,379.845 19.160,379.447 19.199 C 378.603 19.280,378.624 20.843,379.471 21.016 C 379.777 21.079,380.137 21.288,380.273 21.482 C 380.689 22.076,386.433 22.020,387.000 21.417 C 387.298 21.099,387.560 21.000,388.099 21.000 C 388.944 21.000,390.333 19.801,390.333 19.072 C 390.333 18.850,390.483 18.576,390.667 18.461 C 390.959 18.278,391.000 18.073,391.000 16.769 L 391.000 15.285 389.844 14.143 C 389.028 13.337,388.563 13.000,388.266 13.000 C 388.016 13.000,387.773 12.865,387.667 12.667 C 387.525 12.403,387.318 12.333,386.667 12.333 C 386.016 12.333,385.808 12.264,385.667 12.000 C 385.550 11.782,385.318 11.667,384.996 11.667 C 384.683 11.667,384.427 11.545,384.295 11.333 C 384.180 11.150,383.907 11.000,383.687 11.000 C 383.429 11.000,382.972 10.690,382.397 10.125 C 381.111 8.860,381.117 8.178,382.424 6.902 L 383.348 6.000 385.682 6.000 C 387.976 6.000,388.023 6.007,388.414 6.430 C 389.113 7.184,389.583 6.944,389.583 5.833 C 389.583 4.921,389.581 4.916,389.042 4.864 C 388.715 4.833,388.432 4.684,388.328 4.489 C 388.058 3.986,383.270 3.995,383.000 4.500 M26.109 7.249 C 26.964 8.120,27.333 8.622,27.333 8.910 C 27.333 9.151,27.471 9.395,27.667 9.500 C 27.980 9.668,28.000 9.849,28.000 12.563 C 28.000 15.237,27.976 15.470,27.667 15.750 C 27.433 15.961,27.333 16.263,27.333 16.757 C 27.333 17.412,27.248 17.545,26.125 18.645 L 24.917 19.828 23.200 19.831 L 21.482 19.833 20.241 18.612 C 19.051 17.441,19.000 17.359,19.000 16.618 C 19.000 16.016,18.926 15.806,18.667 15.667 C 18.356 15.501,18.333 15.318,18.333 13.020 C 18.333 10.763,18.362 10.526,18.667 10.250 C 18.900 10.039,19.000 9.737,19.000 9.243 C 19.000 8.587,19.088 8.450,20.269 7.269 L 21.538 6.000 23.211 6.000 L 24.884 6.000 26.109 7.249 M134.953 6.869 L 135.833 7.739 135.833 8.913 C 135.833 9.893,135.780 10.120,135.511 10.288 C 135.324 10.405,135.167 10.719,135.136 11.036 C 135.090 11.519,135.019 11.590,134.542 11.636 C 134.212 11.667,133.932 11.816,133.825 12.016 C 133.663 12.318,133.494 12.340,131.700 12.297 L 129.750 12.250 129.704 9.355 C 129.648 5.767,129.484 6.000,132.057 6.000 L 134.073 6.000 134.953 6.869 M196.667 7.181 C 196.667 7.818,196.737 8.026,197.000 8.167 C 197.264 8.308,197.333 8.516,197.333 9.167 C 197.333 9.818,197.403 10.025,197.667 10.167 C 197.929 10.307,198.000 10.516,198.000 11.147 C 198.000 11.737,198.088 12.028,198.333 12.250 C 198.596 12.488,198.667 12.763,198.667 13.557 C 198.667 14.361,198.739 14.639,199.031 14.950 C 199.640 15.598,199.298 15.679,196.154 15.629 L 193.250 15.583 193.200 15.075 C 193.166 14.728,193.259 14.468,193.492 14.257 C 193.742 14.031,193.833 13.743,193.833 13.181 C 193.833 12.594,193.912 12.365,194.167 12.205 C 194.427 12.043,194.500 11.817,194.500 11.171 C 194.500 10.516,194.569 10.308,194.833 10.167 C 195.097 10.025,195.167 9.818,195.167 9.167 C 195.167 8.516,195.236 8.308,195.500 8.167 C 195.762 8.027,195.833 7.818,195.833 7.194 C 195.833 6.309,196.087 5.893,196.446 6.191 C 196.574 6.297,196.667 6.715,196.667 7.181 M290.833 6.417 C 291.049 6.646,291.378 6.833,291.565 6.833 C 292.018 6.833,293.500 8.306,293.500 8.756 C 293.500 8.950,293.688 9.285,293.917 9.500 C 294.328 9.887,294.333 9.925,294.333 12.613 C 294.333 15.309,294.329 15.339,293.917 15.698 C 293.674 15.909,293.500 16.239,293.500 16.490 C 293.500 16.739,293.360 17.007,293.167 17.128 C 292.974 17.248,292.833 17.517,292.833 17.764 C 292.833 18.490,291.998 19.167,291.102 19.167 C 290.512 19.167,290.305 19.241,290.164 19.505 C 289.995 19.820,289.848 19.841,288.033 19.797 L 286.083 19.750 286.040 13.103 C 286.008 8.334,286.050 6.391,286.185 6.228 C 286.571 5.763,290.364 5.917,290.833 6.417 M340.097 7.248 C 340.966 8.125,341.333 8.619,341.333 8.909 C 341.333 9.151,341.471 9.395,341.667 9.500 C 341.980 9.668,342.000 9.849,342.000 12.563 C 342.000 15.237,341.976 15.470,341.667 15.750 C 341.437 15.958,341.333 16.263,341.333 16.730 C 341.333 17.349,341.228 17.515,340.129 18.621 L 338.925 19.833 337.188 19.833 L 335.452 19.833 334.226 18.608 C 333.057 17.439,333.000 17.346,333.000 16.613 C 333.000 16.016,332.926 15.805,332.667 15.667 C 332.356 15.501,332.333 15.318,332.333 13.020 C 332.333 10.763,332.362 10.526,332.667 10.250 C 332.900 10.039,333.000 9.737,333.000 9.243 C 333.000 8.587,333.088 8.450,334.269 7.269 L 335.538 6.000 337.200 6.000 L 338.861 6.000 340.097 7.248 M355.796 7.212 C 356.570 7.992,357.000 8.558,357.000 8.797 C 357.000 9.002,357.150 9.298,357.333 9.455 C 357.643 9.721,357.667 9.947,357.667 12.664 C 357.667 15.406,357.646 15.599,357.333 15.795 C 357.082 15.952,357.000 16.183,357.000 16.739 C 357.000 17.424,356.921 17.555,355.846 18.654 L 354.692 19.833 352.919 19.833 L 351.145 19.833 349.906 18.578 C 348.756 17.413,348.667 17.271,348.667 16.615 C 348.667 16.114,348.569 15.824,348.333 15.622 C 348.029 15.361,348.000 15.130,348.000 12.944 C 348.000 10.763,348.029 10.525,348.333 10.250 C 348.563 10.042,348.667 9.737,348.667 9.270 C 348.667 8.646,348.771 8.485,349.954 7.295 L 351.242 6.000 352.917 6.000 L 354.592 6.000 355.796 7.212 M259.469 7.082 C 259.504 7.638,259.628 8.011,259.844 8.212 C 260.067 8.420,260.167 8.736,260.167 9.231 C 260.167 9.737,260.265 10.037,260.500 10.250 C 260.732 10.460,260.833 10.763,260.833 11.250 C 260.833 11.737,260.934 12.040,261.167 12.250 C 261.437 12.495,261.500 12.763,261.500 13.672 C 261.500 14.637,261.550 14.826,261.862 15.033 C 262.634 15.545,262.087 15.667,259.008 15.667 C 256.451 15.667,256.022 15.630,255.934 15.403 C 255.753 14.929,255.827 14.670,256.250 14.302 C 256.586 14.010,256.667 13.785,256.667 13.142 C 256.667 12.516,256.738 12.307,257.000 12.167 C 257.264 12.025,257.333 11.818,257.333 11.167 C 257.333 10.516,257.403 10.308,257.667 10.167 C 257.931 10.025,258.000 9.818,258.000 9.167 C 258.000 8.516,258.069 8.308,258.333 8.167 C 258.596 8.026,258.667 7.818,258.667 7.189 C 258.667 5.806,259.382 5.711,259.469 7.082 " stroke="none" fill="#040404" fill-rule="evenodd"></path><path id="path2" d="" stroke="none" fill="#bc10080" fill-rule="evenodd"></path><path id="path3" d="" stroke="none" fill="#bc10080" fill-rule="evenodd"></path><path id="path4" d="" stroke="none" fill="#bc10080" fill-rule="evenodd"></path><path id="path5" d="" stroke="none" fill="#bc10080" fill-rule="evenodd"></path><path id="path6" d="" stroke="none" fill="#bc10080" fill-rule="evenodd"></path><path id="path7" d="" stroke="none" fill="#bc10080" fill-rule="evenodd"></path><path id="path8" d="" stroke="none" fill="#bc10080" fill-rule="evenodd"></path></g></svg>